M48
;FILE_FORMAT=4:2
METRIC,TZ,0000.00
;TYPE=PLATED
T01C0.90
;TYPE=NON_PLATED
T02C3.00
T03C3.20
T04C3.40
%
T01
X+18880Y+25350
X+18575Y+26500
X+19573Y+25728
X+19497Y+27018
X+22580Y+25350
X+22275Y+26500
X+23273Y+25728
X+19425Y+24925
X+23125
X+19425Y+24725
X+19225Y+26350
X+19475
X+19275Y+27018
X+23175Y+26350
X+22925
X+23197Y+27018
X+22975
X+23125Y+24725
T02
X+16267Y+24077
Y+27633
X+24141
T03
X+17175Y+24923
X+20875
X+17175Y+26723
Y+25823
X+20875Y+26723
Y+25823
T04
X+17175Y+24173
X+19425
X+20875
X+23125
X+17175Y+27473
X+19425
X+20875
X+23125
T00
M30
